<svg xmlns="http://www.w3.org/2000/svg" width="250" height="250" viewBox="0 0 250 250" stroke="#fff" fill="none" stroke-width="10" stroke-linecap="round"><defs><linearGradient id="a" x1="0%" y1="0%" x2="0%" y2="100%"><stop offset="0%" stop-color="#6633fe" stop-opacity="1"/><stop offset="100%" stop-color="#aa90ff" stop-opacity="1"/></linearGradient></defs><rect x="0" y="0" width="250" height="250" rx="40" ry="40" fill="url(#a)" stroke="none"/><path d="M206.65 84.283c-2.588 33.857-6.489 49.098-16.738 46.662-6.372-1.682-5.098-13.433-18.218-17.065-13.167-3.648-21.568 12.79-23.375 20.163"/><path d="M166.788 206.97c17.806-28.913 23.608-43.536 13.885-47.589-6.144-2.385-12.02 7.87-24.77 3.098-12.796-4.79-9.93-23.026-7.058-30.053M82.062 43.802C64.256 72.715 58.454 87.337 68.177 91.39c6.144 2.386 12.02-7.87 24.77-3.097 12.796 4.789 9.93 23.026 7.059 30.052"/><path d="M42.2 166.488c2.588-33.857 6.489-49.097 16.738-46.661 6.372 1.681 5.098 13.433 18.218 17.065 13.167 3.647 21.568-12.791 23.375-20.164"/><g><path d="M206.009 83.023c-33.857-2.589-49.098-6.49-46.662-16.738 1.682-6.372 13.433-5.099 17.065-18.218 3.648-13.168-12.79-21.569-20.163-23.375"/><path d="M83.323 43.16c28.912 17.806 43.535 23.609 47.588 13.885 2.385-6.143-7.87-12.02-3.098-24.77 4.79-12.796 23.026-9.93 30.053-7.058"/></g><g><path d="M165.837 206.66c-28.913-17.805-43.536-23.608-47.589-13.885-2.385 6.144 7.87 12.02 3.098 24.77-4.79 12.796-23.026 9.93-30.053 7.059"/><path d="M43.15 166.797c33.857 2.59 49.098 6.49 46.662 16.739-1.682 6.372-13.433 5.098-17.065 18.218-3.648 13.167 12.79 21.568 20.163 23.375"/></g></svg>