<svg xmlns="http://www.w3.org/2000/svg" xml:space="preserve" width="1120" height="160" version="1.1" viewBox="0 0 1120 160" shape-rendering="geometricPrecision" text-rendering="geometricPrecision" image-rendering="optimizeQuality" fill-rule="evenodd" clip-rule="evenodd"><defs><filter id="a" x="0" y="0"><feGaussianBlur in="SourceAlpha" stdDeviation="4" result="blur"/><feOffset in="blur" dx="5" dy="5" result="offsetBlur"/><feSpecularLighting in="blur" surfaceScale="5" specularConstant=".75" specularExponent="20" lighting-color="#E3000A" result="specOut"><fePointLight x="-5000" y="-10000" z="10000"/></feSpecularLighting><feComposite in="specOut" in2="SourceAlpha" operator="in" result="specOut"/><feComposite in="SourceGraphic" in2="specOut" operator="arithmetic" k1="0" k2="1" k3="1" k4="0" result="litPaint"/><feMerge><feMergeNode in="offsetBlur"/><feMergeNode in="litPaint"/></feMerge></filter><filter id="b" x="0" y="0"><feGaussianBlur in="SourceAlpha" stdDeviation="4" result="blur"/><feOffset in="blur" dx="5" dy="5" result="offsetBlur"/><feSpecularLighting in="blur" surfaceScale="5" specularConstant=".75" specularExponent="20" lighting-color="#fff" result="specOut"><fePointLight x="-5000" y="-10000" z="10000"/></feSpecularLighting><feComposite in="specOut" in2="SourceAlpha" operator="in" result="specOut"/><feComposite in="SourceGraphic" in2="specOut" operator="arithmetic" k1="0" k2="1" k3="1" k4="0" result="litPaint"/><feMerge><feMergeNode in="offsetBlur"/><feMergeNode in="litPaint"/></feMerge></filter></defs><g fill-rule="nonzero"><path filter="url(#a)" d="M79.7 59.78L78.61 70.8c-1 .32-1.91.48-2.73.48-1.98 0-4.25-.7-6.78-2.1 5.4 9.57 8.1 19.94 8.1 31.1 0 2.74-.2 5.4-.59 8-1.5 9.74-4.61 16.5-9.38 20.32-5.53 4.45-14.97 6.68-28.32 6.68-11.51 0-20.28-2.01-26.31-6.05-3.59-2.45-5.9-5.33-6.99-8.65-.81-2.51-1.21-4.58-1.21-6.2 0-4.95 4.1-8.23 12.3-9.81 3.46-.65 6.83-.99 10.11-.99 4.7 0 8.49.67 11.39 2 2.8 1.34 4.2 3.07 4.2 5.17 0 4.82-3.24 8.32-9.69 10.5-4.3 1.47-6.83 2.37-7.61 2.73-1.54.72-2.3 1.49-2.3 2.3 0 1.2 2.56 1.8 7.71 1.8 6.42 0 11.9-1.13 16.47-3.41 3.82-1.9 6.58-6.5 8.3-13.8C56.43 105.98 57 100.7 57 95.03c0-1.33-.07-2.35-.2-3.03-1.07 2.53-3.7 4.57-7.9 6.08-3.75 1.34-7.89 2-12.4 2-6.84 0-12.25-2.41-16.22-7.25-2.93-3.55-4.82-7.98-5.67-13.3-.75-4.58-1.11-7.98-1.11-10.18 0-4.23 1.05-7.33 3.13-9.32 2.37-2.3 6.4-3.45 12.1-3.45 2.67 0 6.03.3 10.1.92 6.97 1.02 12.17 3.02 15.58 6 .32.27.49.18.49-.25 0-.97-.64-3.87-1.92-8.67 7.27 4.4 14.2 6.6 20.8 6.6 2.65 0 4.62-.46 5.92-1.4zM59.4 82.15c0-2.1-2.3-4.23-6.89-6.4-4.11-1.92-8.31-2.87-12.61-2.87-4.17 0-7.62.39-10.35 1.17-3.1.87-4.65 2.1-4.65 3.68 0 1.92 2.28 3.8 6.86 5.67 4.59 1.85 9.39 2.78 14.44 2.78 3.98 0 7.16-.38 9.58-1.13 2.42-.77 3.62-1.73 3.62-2.9zm98.1-6.2c0 4.55-4.14 7.9-12.4 10.03-4.8 1.27-9.12 1.9-13 1.9-7.07 0-10.6-1.91-10.6-5.76 0-4.37 1.81-8.07 5.46-11.1 2.9-2.42 6.59-4.15 11.05-5.24.39-.1.59-.36.59-.8 0-.73-.82-1.5-2.45-2.33-1.85-.92-4-1.37-6.45-1.37-4.44 0-8.34 1.24-11.69 3.7-4.15 3.07-6.21 7.39-6.21 12.99 0 4.61 1.43 11.65 4.3 21.11.26.82 1.96 1.55 5.11 2.2 3.49.7 7.87 1.24 13.19 1.6-.45 2.05-1 4.52-1.67 7.4-1.27-.06-3.13-.1-5.6-.1-14.98 0-29.78 1.87-44.4 5.6-.97-1.45-1.78-3.75-2.43-6.9-.07-.35.11-.61.53-.78 3.9-1.62 5.88-2.42 5.93-2.42 1.74-.91 2.64-2 2.74-3.28.43-3.42.85-6.82 1.26-10.2.75-6.58 1.14-11.68 1.14-15.3 0-3.92-.44-6.18-1.32-6.8-1.07-.82-2.63-1.22-4.68-1.22-.75 0-2.09.17-4 .49-.52.1-.79.03-.79-.19 0-.5-.2-2.26-.6-5.3-.41-3.05-.61-4.75-.61-5.11 0-.45.28-.62.83-.49 2.77.74 5.57 1.1 8.4 1.1 6.88 0 14.08-2.5 21.57-7.5-.42 2.57-.95 5.9-1.6 10 5.21-4.86 12.45-7.3 21.73-7.3 12.6 0 20.9 4.72 24.92 14.17 1.16 2.85 1.75 5.25 1.75 7.2zm77 0c0 4.55-4.13 7.9-12.4 10.03-4.8 1.27-9.12 1.9-13 1.9-7.07 0-10.6-1.91-10.6-5.76 0-4.37 1.81-8.07 5.46-11.1 2.9-2.42 6.59-4.15 11.05-5.24.39-.1.59-.36.59-.8 0-.73-.82-1.5-2.45-2.33-1.85-.92-4-1.37-6.45-1.37-4.44 0-8.34 1.24-11.69 3.7-4.15 3.07-6.21 7.39-6.21 12.99 0 4.61 1.43 11.65 4.3 21.11.26.82 1.96 1.55 5.11 2.2 3.49.7 7.87 1.24 13.19 1.6-.45 2.05-1 4.52-1.67 7.4-1.27-.06-3.13-.1-5.6-.1-14.98 0-29.78 1.87-44.4 5.6-.97-1.45-1.78-3.75-2.43-6.9-.07-.35.11-.61.53-.78 3.9-1.62 5.88-2.42 5.93-2.42 1.74-.91 2.64-2 2.74-3.28.43-3.42.85-6.82 1.26-10.2.75-6.58 1.14-11.68 1.14-15.3 0-3.92-.44-6.18-1.32-6.8-1.07-.82-2.63-1.22-4.68-1.22-.75 0-2.09.17-4 .49-.52.1-.79.03-.79-.19 0-.5-.2-2.26-.6-5.3-.41-3.05-.61-4.75-.61-5.11 0-.45.28-.62.83-.49 2.77.74 5.57 1.1 8.4 1.1 6.88 0 14.08-2.5 21.57-7.5-.42 2.57-.95 5.9-1.6 10 5.21-4.86 12.45-7.3 21.73-7.3 12.6 0 20.9 4.72 24.92 14.17 1.16 2.85 1.75 5.25 1.75 7.2zm76.8 33.13c-1.6-1.13-4-1.7-7.18-1.7-7.67 0-15.54 2.37-23.62 7.1 1.67-6.01 2.48-9.7 2.48-11.06 0-.54-.11-.67-.38-.45-2.8 2.51-6.73 4.48-11.82 5.93-5.08 1.45-10.51 2.18-16.3 2.18-7.13 0-12.23-1.46-15.33-4.4-2.77-2.63-4.15-6.75-4.15-12.31 0-2.67.3-5.84.88-9.49 1.13-6.83 3.53-12.5 7.17-17 4.67-5.73 10.77-8.6 18.32-8.6 4 0 8.16 1.05 12.5 3.14 4.03 1.95 7.56 4.5 10.58 7.66 0-.13.03-.38.08-.75.05-.38.07-.6.07-.66 0-11.04-4.63-21.8-13.9-32.29 11.55-1.6 24.42-3.6 38.57-6 .48 1.57.73 3.39.73 5.47 0 1.53-.22 2.55-.63 3.03-4.59 1.5-6.87 3.2-6.87 5.09 0 .2.02.4.05.58 1.63 8.3 2.45 15.98 2.45 23.1 0 11.02-2 21.17-6 30.42 2.77-1.65 5.4-2.49 7.9-2.49 1.33 0 2.35.17 3.03.49l1.37 13.01zm-24-25.81c0-1.44-1.72-2.62-5.13-3.57-2.99-.82-6.29-1.22-9.87-1.22-5.72 0-11.32 1.09-16.8 3.27-5.47 2.18-8.2 4.38-8.2 6.6 0 1.57 1.58 2.88 4.73 3.92 3.34 1.08 7.7 1.61 13.15 1.61 5.04 0 10.04-1.26 14.99-3.81 4.75-2.42 7.13-4.67 7.13-6.8zm44.6-41.5c0 2.63-1 5.66-2.98 9.08-.79 1.33-1.57 2.67-2.35 4-.82 1.57-1.34 3-1.57 4.3-.68.62-1.18.93-1.52.93-.31 0-.51-.16-.58-.48-.42-2.38-1.8-5.55-4.12-9.53-1.85-3.19-2.78-6.09-2.78-8.69 0-3 .8-5.56 2.42-7.7 1.61-2.13 3.75-3.2 6.38-3.2 2.32 0 4.15 1.3 5.48 3.9 1.09 2.15 1.62 4.62 1.62 7.39zm76.9 50.85c0 1.33-.1 2.65-.3 3.95-.93 6.21-5.55 11.03-13.82 14.48-7.65 3.22-17.3 4.83-28.96 4.83-7.97 0-14.49-1.1-19.54-3.3-4.31-1.88-6.96-4.2-7.9-6.96-.65-1.97-.98-3.64-.98-5 0-4.7 4.48-7.65 13.47-8.85 3.03-.39 5.83-.59 8.4-.59 4.68 0 8.4.59 11.13 1.75 2.73 1.19 4.1 2.79 4.1 4.84 0 2.15-1 4.06-2.98 5.71-2.47 2.09-6.22 3.49-11.22 4.2-3 .42-4.5 1.04-4.5 1.87 0 .88 2.63 1.33 7.92 1.33 2.05 0 3.88-.1 5.46-.3 4.6-.55 7.97-1.35 10.12-2.38 3.27-1.53 4.83-3.83 4.7-6.9-.42-9.95-5.33-14.92-14.73-14.92-.95 0-2.87.12-5.75.35-2.89.24-4.94.35-6.14.35-9.85 0-14.78-3.36-14.78-10.1 0-1.6.15-3.01.43-4.28 1.09-5.18 4.04-9.32 8.87-12.4 5.55-3.55 13.05-5.32 22.52-5.32 9.18 0 15.95.84 20.31 2.49 3.82 1.41 6.37 3.71 7.65 6.88.82 1.98 1.22 3.53 1.22 4.67 0 3.66-3.9 5.75-11.7 6.26-1.47.07-3.07.1-4.78.1-10.35 0-15.52-1.8-15.52-5.36 0-3.14 1.8-5.47 5.42-7.04.45-.2 3.16-.9 8.1-2.1.58-.13.88-.35.88-.65 0-1.1-2.55-1.65-7.65-1.65-9.7 0-14.55 2.87-14.55 8.59 0 1.33.27 2.76.78 4.28 1.2 3.45 3.1 5.87 5.69 7.23 2.11 1.14 5.03 1.7 8.76 1.7 1.27 0 3.34-.08 6.17-.25 2.83-.16 4.97-.25 6.37-.25 5.48 0 9.6.84 12.33 2.49 3.33 1.98 5 5.4 5 10.25z" fill="#a60418"/><path filter="url(#b)" d="M544.78 45.43c0 5.44-1.87 9.39-5.59 11.85-3.75 2.45-9.84 3.67-18.29 3.67-10.11 0-18.63-1.83-25.6-5.49-6.49-3.46-9.73-7.42-9.73-11.9 0-4.44 2.11-8.45 6.33-12.04 4.43-3.82 9.76-5.72 15.99-5.72.98 0 2.32.02 4.04.07 1.69.06 2.72.08 3.09.08h1.24c1.08-.31 1.61-.81 1.61-1.55 0-1.8-1.96-3.64-5.89-5.49-4.7-2.27-10.53-3.41-17.55-3.41-10.05 0-18.47 3.25-25.23 9.74-7.99 7.63-11.98 18.58-11.98 32.85 0 4.04.37 8.48 1.09 13.31 3.29 21.56 6.25 35.99 8.89 43.3 3.19 8.92 7.73 13.38 13.62 13.38 8.86 0 13.3-4.72 13.3-14.2 0-4.22-1.06-10.82-3.17-19.79-.87-3.64-2.75-5.94-5.62-6.86-3.04-.53-6.07-1.03-9.08-1.56-1.13-.21-1.87-1.77-2.24-4.64-.21-2.25-.19-4.17.08-5.83.97.5 22.22 1.08 63.73 1.74-6.97 11.08-10.45 24.12-10.45 39.11 0 2.71.15 4.69.47 5.93-1.71 2.01-5.75 4.49-12.14 7.42-9.45 4.38-20.9 7.94-34.41 10.69-6.28 1.29-11.98 1.92-17.07 1.92-27.9 0-41.83-18.05-41.83-54.17 0-54.34 20.69-81.52 62.09-81.52 35.26 0 55.05 10.29 59.38 30.9.61 3.04.92 5.78.92 8.21zm131.92 85.53c-2.43-1.72-6.36-2.56-11.82-2.56-6.63 0-14.07 1.08-22.35 3.22-8.32 2.16-14.81 4.67-19.5 7.54 1.79-8.63 2.69-14.38 2.69-17.26 0-.87-.16-1.29-.48-1.24-.18.06-.53.27-1 .64-8.66 7.1-18.97 11.42-30.98 12.98-5.73.71-10.58 1.08-14.54 1.08-11.77 0-20.19-2.5-25.28-7.49-4.59-4.49-6.89-11.38-6.89-20.66 0-4.83.48-10.16 1.4-16 1.9-11.56 6.02-21.08 12.38-28.6 7.62-8.92 17.39-13.38 29.31-13.38 12.88 0 25.44 5.94 37.66 17.78 0-2.58-.71-6.22-2.16-10.92-1.61-5.01-3.43-9.1-5.44-12.25 25.36-3.85 42.91-7.54 52.59-11.08.93 3.25 1.4 6.49 1.4 9.79 0 2.67-.31 4.33-.92 4.94-7.6 2.58-11.43 4.9-11.43 6.96v.16c0 1.69.08 4.38.24 8.05.16 3.64.24 6.47.24 8.42 0 16.57-2.11 30.21-6.34 41.01 3.41-2.11 7.45-3.17 12.14-3.17 2.48 0 4.78.29 6.92.84l2.16 21.2zM631.73 87.7c0-2.19-2.16-3.98-6.49-5.43-4.59-1.56-10.55-2.32-17.92-2.32-9.65 0-18.92 1.79-27.84 5.4-8.65 3.59-12.98 7.18-12.98 10.8 0 2.87 3.06 5.2 9.21 6.97 5.52 1.55 12.03 2.32 19.61 2.32 8.63 0 16.94-2.06 24.99-6.2 7.62-3.99 11.42-7.82 11.42-11.54zm232.6-12.24c0 14.91-9.34 29.63-28.03 44.23l21.11 3.32c1.09 1.45 2.56 3.72 4.41 6.81-4.04-.21-11.53-.32-22.51-.32-10.16 0-21.19.11-33.09.32 3.75-4.38 7.76-11.61 11.98-21.64 4.56-10.92 6.86-19.5 6.86-25.73 0-5.25-1.79-7.89-5.41-7.89-5.88 0-12.14 4.94-18.81 14.83-5.41 8.05-9.8 17.13-13.15 27.29 0 10.24.66 16.68 2.01 19.32 2.11.81 5.62 1.76 10.5 2.85-.55.97-1.58 3.51-3.01 7.6l-42.11-9.66c4.96-9.69 7.44-22.09 7.44-37.19 0-6.86-.13-11.18-.4-13-.87-6.23-3.01-9.35-6.41-9.35-1.29 0-2.96.53-5.01 1.56-8.58 4.28-14.81 14.15-18.74 29.58.11 4.91 2.43 14.2 6.97 27.92-11.11-5.06-23.17-7.6-36.18-7.6-8.47 0-14.31 1.37-17.5 4.12l.32-17.92c1.63-.61 3.67-.92 6.04-.92 3.91 0 7.76.84 11.53 2.56-4.35-10.43-8.26-28.42-11.71-54.02-.51-3.46-2.48-5.49-5.86-6.1-3.14-.16-6.26-.34-9.34-.55-1.9-.27-2.85-3.43-2.85-9.5h1.61c5.88 0 26.49-.95 61.88-2.85-5.39 11.14-8.08 23.59-8.08 37.37 0 2.98.16 5.51.48 7.57 6.12-20.22 17.84-35.73 35.15-46.55 4.54-2.82 8.47-4.25 11.82-4.25 9.63 0 14.46 10.77 14.46 32.3 0 6.33-.32 12.03-.95 17.1 4.91-8.42 10.32-15.6 16.31-21.59 10.34-10.21 21.06-15.3 32.14-15.3 7.52 0 13.75 2.35 18.71 7.07 4.94 4.72 7.42 10.79 7.42 18.21zm115.24 7.18c0 2.64-.11 5.72-.32 9.29 0 .6-.24.84-.76.68-8.77-1.95-23.12-4.54-43.1-7.78-17.73-2.83-26.99-4.25-27.84-4.25-1.18 0-1.77 4.85-1.77 14.54 0 12.22 2.7 21.32 8.05 27.37 4.07 4.59 9.29 7.01 15.68 7.33 3.61.16 6.94-.39 9.97-1.63 1.19-.45 1.77-.93 1.77-1.4 0-.29-.31-.56-.92-.77-6.76-1.24-12.27-3.75-16.58-7.52-4.27-3.8-6.41-8.31-6.41-13.56 0-3.3 1.88-5.97 5.62-8 3.73-2.03 8.82-3.06 15.28-3.06 4.44 0 9.13.47 14.07 1.4 13.32 2.58 19.98 7.91 19.98 16.02 0 2.27-.61 4.59-1.85 6.96-3.46 6.49-7.73 11.14-12.85 13.91-7.42 4.04-18.71 6.04-33.86 6.04-17.44 0-31.35-6.44-41.77-19.34-8.92-10.98-13.38-23.38-13.38-37.21 0-25.52 20.84-38.29 62.56-38.29 24.2 0 39.06 6.04 44.63 18.16 2.53 5.51 3.8 12.56 3.8 21.11zm-29.61-17.76c0-2.88-1.87-5.23-5.65-7.05-3.77-1.82-8.76-2.74-14.93-2.74-7.23 0-13.51.66-18.82 2-6.25 1.53-9.37 3.62-9.37 6.26 0 6.62 10.66 9.95 31.96 9.95 11.22 0 16.81-2.8 16.81-8.42zm143.48 37.6c0 2.11-.16 4.2-.48 6.26-1.48 9.84-8.79 17.47-21.87 22.93-12.12 5.09-27.4 7.65-45.87 7.65-12.61 0-22.93-1.74-30.93-5.22-6.83-2.99-11.03-6.65-12.5-11.03-1.03-3.12-1.56-5.76-1.56-7.92 0-7.44 7.1-12.11 21.32-14.01 4.8-.61 9.24-.93 13.3-.93 7.42 0 13.3.93 17.63 2.77 4.33 1.88 6.49 4.41 6.49 7.66 0 3.4-1.58 6.43-4.72 9.05-3.91 3.3-9.85 5.51-17.76 6.65-4.75.66-7.13 1.63-7.13 2.95 0 1.4 4.17 2.11 12.54 2.11 3.24 0 6.15-.15 8.65-.47 7.29-.87 12.62-2.14 16.02-3.77 5.17-2.43 7.65-6.07 7.44-10.93-.66-15.75-8.44-23.62-23.33-23.62-1.5 0-4.54.19-9.1.56-4.57.37-7.81.55-9.71.55-15.6 0-23.41-5.33-23.41-15.99 0-2.53.24-4.78.69-6.78 1.71-8.21 6.38-14.75 14.04-19.64 8.78-5.62 20.66-8.41 35.65-8.41 14.54 0 25.25 1.31 32.17 3.93 6.04 2.24 10.08 5.88 12.11 10.9 1.29 3.14 1.93 5.59 1.93 7.39 0 5.8-6.18 9.1-18.53 9.92-2.32.1-4.86.16-7.57.16-16.39 0-24.57-2.85-24.57-8.5 0-4.96 2.85-8.66 8.57-11.14.72-.32 5.02-1.42 12.83-3.32.92-.21 1.4-.56 1.4-1.03 0-1.74-4.04-2.61-12.11-2.61-15.36 0-23.04 4.53-23.04 13.59 0 2.11.42 4.38 1.24 6.78 1.9 5.46 4.91 9.29 9 11.45 3.35 1.8 7.97 2.69 13.88 2.69 2 0 5.28-.13 9.76-.39 4.49-.27 7.87-.4 10.08-.4 8.68 0 15.2 1.32 19.53 3.93 5.28 3.14 7.92 8.55 7.92 16.23z" fill="#ddd"/></g></svg>